<svg width="9500" height="8570" viewBox="0 0 9500 8570" fill="none" xmlns="http://www.w3.org/2000/svg">
<mask id="mask0_369_51" style="mask-type:luminance" maskUnits="userSpaceOnUse" x="460" y="2660" width="9094" height="6437">
<path d="M460 2660H9553.6V9096.8H460" fill="white"/>
</mask>
<g mask="url(#mask0_369_51)">
<path d="M3743.2 6008C3732.4 6040.4 3840.4 6072.8 4056.4 6018.8C4272.4 5975.6 4056.4 5889.2 3926.8 5900C3808 5910.8 3743.2 5964.8 3743.2 6008Z" fill="#5E1313"/>
<path d="M4067.2 5792L3678.4 6267.2L3851.2 6418.4C4088.8 6202.4 4348 6040.4 4585.6 5921.6L4067.2 5792Z" fill="#F58D6C"/>
<path d="M3851.2 6418.4L3883.6 6386C3775.6 6310.4 3764.8 6159.2 3764.8 6159.2L3678.4 6267.2L3851.2 6418.4Z" fill="white"/>
<path d="M3743.2 6137.6C3754 6126.8 3732.4 6116 3721.6 6126.8L3538 6299.6L3505.6 6418.4L3397.6 6461.6L3894.4 6850.4C3926.8 6882.8 3970 6904.4 4024 6904.4L4326.4 6936.8L4348 6915.2L4326.4 6893.6L4045.6 6861.2C4002.4 6861.2 3959.2 6839.6 3937.6 6807.2C3851.2 6710 3689.2 6494 3678.4 6450.8C3667.6 6386 3743.2 6137.6 3743.2 6137.6Z" fill="#ED3D50"/>
<path d="M3872.8 6396.8C3926.8 6375.2 3959.2 6278 4013.2 6256.4C4099.6 6224 4142.8 6267.2 4142.8 6267.2C4142.8 6267.2 4045.6 6364.4 4034.8 6504.8L3872.8 6396.8Z" fill="#ED3D50"/>
<path d="M3710.8 6267.2C3710.8 6267.2 3840.4 6386 3883.6 6396.8C3916 6407.6 3991.6 6386 3991.6 6386C4045.6 6450.8 4110.4 6731.6 4121.2 6742.4C4164.4 6774.8 4315.6 6753.2 4337.2 6796.4C4369.6 6839.6 4326.4 6893.6 4326.4 6893.6L4002.4 6882.8L3797.2 6720.8L3646 6440L3710.8 6267.2Z" fill="#FBB855"/>
<path d="M3883.6 6645.2C3880.74 6645.2 3877.99 6644.06 3875.96 6642.04C3873.94 6640.01 3872.8 6637.26 3872.8 6634.4C3872.8 6631.54 3873.94 6628.79 3875.96 6626.76C3877.99 6624.74 3880.74 6623.6 3883.6 6623.6L4078 6580.4C4082.3 6578.97 4086.99 6579.3 4091.04 6581.33C4095.09 6583.35 4098.17 6586.9 4099.6 6591.2C4101.03 6595.5 4100.7 6600.19 4098.67 6604.24C4096.65 6608.29 4093.1 6611.37 4088.8 6612.8C4019.48 6616.63 3950.73 6627.49 3883.6 6645.2ZM3916 6548C3913.14 6548 3910.39 6546.86 3908.36 6544.84C3906.34 6542.81 3905.2 6540.06 3905.2 6537.2C3905.2 6534.34 3906.34 6531.59 3908.36 6529.56C3910.39 6527.54 3913.14 6526.4 3916 6526.4C3961.24 6511.3 4008.72 6504 4056.4 6504.8C4059.27 6504.8 4062.01 6505.94 4064.04 6507.96C4066.06 6509.99 4067.2 6512.74 4067.2 6515.6C4067.2 6518.46 4066.06 6521.21 4064.04 6523.24C4062.01 6525.26 4059.27 6526.4 4056.4 6526.4C4008.69 6525.16 3961.14 6532.47 3916 6548Z" fill="white"/>
<path d="M4520.8 5910.8L3980.8 5889.2L3905.2 5986.4L4294 6083.6L4510 5943.2L4520.8 5910.8Z" fill="#D74225"/>
<path d="M5438.8 3675.2C5460.4 3448.4 5438.8 3210.8 5298.4 3135.2C4898.8 2919.2 4434.4 3124.4 4423.6 3578C4423.6 3902 4650.4 4636.4 4888 4928C4866.4 4928 4628.8 5176.4 4672 5262.8L4618 5295.2C4488.4 5349.2 4348 5370.8 4315.6 5403.2C4283.2 5446.4 4326.4 5457.2 4326.4 5489.6C4315.6 5522 4099.6 5489.6 4067.2 5565.2C4045.6 5619.2 4067.2 5640.8 4088.8 5651.6C4099.6 5662.4 3862 5651.6 3840.4 5727.2C3829.6 5792 3894.4 5846 3894.4 5846C3894.4 5846 3764.8 5856.8 3754 6008C3775.6 5900 4348 6072.8 4466.8 5997.2L5093.2 5630C5309.2 5511.2 5460.4 5414 5471.2 5241.2C5492.8 4820 5546.8 3945.2 5438.8 3675.2Z" fill="#217177"/>
<path d="M5114.8 7109.6V7098.8L5104 7088L4445.2 6969.2C4440.91 6967.77 4436.22 6968.1 4432.17 6970.13C4428.12 6972.15 4425.04 6975.7 4423.6 6980C4422.17 6984.3 4422.5 6988.99 4424.53 6993.04C4426.55 6997.09 4430.11 7000.17 4434.4 7001.6L5093.2 7109.6H5114.8Z" fill="#0F3952"/>
<path d="M4272.4 7023.2L4596.4 7034C4618 7034 4639.6 7023.2 4639.6 6990.8C4639.6 6969.2 4628.8 6947.6 4596.4 6947.6L4272.4 6926C4250.8 6926 4229.2 6947.6 4229.2 6969.2C4229.2 6990.8 4250.8 7012.4 4272.4 7023.2Z" fill="#0F3952"/>
<path d="M4434.4 6990.8C4435.82 6991.51 4437.36 6991.93 4438.95 6992.04C4440.53 6992.16 4442.12 6991.96 4443.62 6991.46C4445.12 6990.95 4446.51 6990.16 4447.71 6989.12C4448.91 6988.08 4449.89 6986.82 4450.6 6985.4C4451.31 6983.98 4451.73 6982.44 4451.85 6980.86C4451.96 6979.27 4451.76 6977.69 4451.26 6976.18C4450.76 6974.68 4449.96 6973.29 4448.92 6972.09C4447.88 6970.89 4446.62 6969.91 4445.2 6969.2C4442.34 6967.77 4439.02 6967.53 4435.98 6968.54C4432.94 6969.56 4430.43 6971.74 4429 6974.6C4427.57 6977.46 4427.33 6980.78 4428.35 6983.82C4429.36 6986.86 4431.54 6989.37 4434.4 6990.8Z" fill="white"/>
</g>
<mask id="mask1_369_51" style="mask-type:luminance" maskUnits="userSpaceOnUse" x="5150" y="4990" width="5265" height="3727">
<path d="M5150 4990H10414.8V8716.61H5150" fill="white"/>
</mask>
<g mask="url(#mask1_369_51)">
<path d="M6656.9 6021.7C6765.68 5873.35 6902.75 5747.99 7060.19 5652.85C7217.64 5557.71 7392.35 5494.67 7574.27 5467.35C7756.19 5440.04 7941.72 5448.99 8120.16 5493.69C8298.6 5538.39 8466.44 5617.96 8613.99 5727.82C8763.23 5836.64 8889.36 5974.03 8985.06 6132C9080.75 6289.97 9144.11 6465.38 9171.46 6648.04C9198.8 6830.71 9189.57 7016.98 9144.33 7196.05C9099.08 7375.12 9018.7 7543.42 8907.87 7691.17C8799.09 7839.51 8662.02 7964.87 8504.58 8060.01C8347.13 8155.15 8172.42 8218.19 7990.5 8245.51C7808.58 8272.83 7623.05 8263.87 7444.61 8219.17C7266.17 8174.47 7098.33 8094.9 6950.78 7985.04C6801.54 7876.22 6675.41 7738.84 6579.71 7580.86C6484.02 7422.89 6420.66 7247.48 6393.32 7064.82C6365.97 6882.15 6375.2 6695.88 6420.44 6516.81C6465.69 6337.74 6546.07 6169.44 6656.9 6021.7ZM6588.12 5971.67C6354.3 6288.41 6255.87 6685.06 6314.5 7074.37C6373.14 7463.68 6584.02 7813.75 6900.75 8047.57C7217.49 8281.39 7614.15 8379.82 8003.45 8321.19C8392.76 8262.55 8742.83 8051.67 8976.65 7734.94C9210.47 7418.2 9308.9 7021.54 9250.27 6632.24C9191.64 6242.93 8980.75 5892.86 8664.02 5659.04C8347.28 5425.22 7950.62 5326.79 7561.32 5385.42C7172.01 5444.05 6821.94 5654.93 6588.12 5971.67Z" fill="#0C1A37"/>
<path d="M8826.59 7628.64C8724.77 7766.18 8596.86 7882.31 8450.16 7970.41C8303.45 8058.52 8140.84 8116.86 7971.59 8142.12C7802.34 8167.38 7629.77 8159.05 7463.74 8117.62C7297.71 8076.18 7141.46 8002.45 7003.92 7900.63C6866.39 7798.81 6750.25 7670.9 6662.15 7524.2C6574.05 7377.5 6515.7 7214.88 6490.44 7045.63C6465.19 6876.38 6473.51 6703.81 6514.95 6537.78C6556.38 6371.75 6630.11 6215.51 6731.93 6077.97C6937.56 5800.2 7245.12 5615.5 7586.93 5564.49C7928.75 5513.48 8276.83 5600.35 8554.59 5805.98C8832.36 6011.61 9017.07 6319.16 9068.08 6660.98C9119.08 7002.79 9032.22 7350.87 8826.59 7628.64ZM6756.94 6096.73C6648.78 6230.7 6568.85 6385.18 6521.99 6550.87C6475.13 6716.56 6462.3 6890.02 6484.27 7060.79C6506.24 7231.57 6562.56 7396.14 6649.84 7544.56C6737.11 7692.99 6853.54 7822.21 6992.09 7924.44C7130.65 8026.67 7288.47 8099.79 7456.04 8139.39C7623.61 8178.98 7797.47 8184.25 7967.13 8154.85C8136.79 8125.46 8298.74 8062.02 8443.22 7968.36C8587.71 7874.7 8711.74 7752.76 8807.83 7609.88C8991.25 7337.15 9062.33 7004.14 9006.22 6680.29C8950.12 6356.44 8771.17 6066.74 8506.69 5871.61C8242.21 5676.47 7912.61 5590.96 7586.62 5632.9C7260.63 5674.84 6963.42 5841 6756.94 6096.73Z" fill="#0C1A37"/>
<path d="M7794.89 6865.81H7788.64L6681.91 7522.34C6679.58 7522.67 6677.2 7522.34 6675.05 7521.37C6672.9 7520.41 6671.06 7518.86 6669.76 7516.9C6668.45 7514.94 6667.72 7512.65 6667.66 7510.29C6667.6 7507.94 6668.2 7505.61 6669.4 7503.59L7776.13 6840.8C7777.77 6839.57 7779.64 6838.67 7781.63 6838.16C7783.62 6837.65 7785.69 6837.54 7787.72 6837.83C7789.75 6838.12 7791.71 6838.81 7793.47 6839.85C7795.24 6840.9 7796.78 6842.28 7798.02 6843.93C7799.25 6845.57 7800.14 6847.44 7800.65 6849.43C7801.16 6851.41 7801.28 6853.48 7800.98 6855.52C7800.69 6857.55 7800.01 6859.5 7798.96 6861.27C7797.92 6863.04 7796.53 6864.58 7794.89 6865.81ZM7957.46 8110.1C7956.63 8113.41 7954.52 8116.27 7951.59 8118.02C7948.65 8119.78 7945.14 8120.31 7941.83 8119.48C7938.51 8118.65 7935.66 8116.53 7933.9 8113.6C7932.14 8110.67 7931.62 8107.16 7932.45 8103.84L7826.15 7297.25C7825.74 7295.6 7825.66 7293.9 7825.91 7292.22C7826.16 7290.55 7826.73 7288.94 7827.6 7287.49C7828.48 7286.04 7829.62 7284.77 7830.98 7283.76C7832.34 7282.76 7833.89 7282.03 7835.53 7281.61C7837.17 7281.2 7838.88 7281.12 7840.56 7281.37C7842.23 7281.62 7843.84 7282.2 7845.29 7283.07C7846.74 7283.94 7848.01 7285.09 7849.02 7286.45C7850.02 7287.81 7850.75 7289.35 7851.16 7290.99L7957.46 8097.59V8110.1ZM7726.11 8047.57C7724.45 8050.89 7721.54 8053.41 7718.03 8054.58C7714.51 8055.75 7710.67 8055.48 7707.35 8053.82C7704.03 8052.16 7701.51 8049.26 7700.34 8045.74C7699.17 8042.22 7699.44 8038.38 7701.1 8035.06L7707.35 7960.03C7707.35 7956.72 7708.67 7953.54 7711.01 7951.19C7713.36 7948.84 7716.54 7947.53 7719.86 7947.53C7723.17 7947.53 7726.35 7948.84 7728.7 7951.19C7731.04 7953.54 7732.36 7956.72 7732.36 7960.03L7726.11 8041.32V8047.57Z" fill="#0C1A37"/>
<path d="M7738.62 7878.75C7736.96 7882.06 7734.05 7884.59 7730.53 7885.76C7727.01 7886.93 7723.17 7886.66 7719.86 7885C7716.54 7883.34 7714.02 7880.43 7712.85 7876.92C7711.67 7873.4 7711.95 7869.56 7713.6 7866.24L7769.88 6853.3C7769.88 6849.99 7771.2 6846.81 7773.54 6844.46C7775.89 6842.12 7779.07 6840.8 7782.38 6840.8C7785.7 6840.8 7788.88 6842.12 7791.23 6844.46C7793.57 6846.81 7794.89 6849.99 7794.89 6853.3L7738.62 7872.49V7878.75ZM7350.95 7891.25C7349.29 7894.57 7346.38 7897.09 7342.86 7898.26C7339.35 7899.44 7335.51 7899.16 7332.19 7897.51C7328.87 7895.85 7326.35 7892.94 7325.18 7889.42C7324.01 7885.9 7324.28 7882.06 7325.94 7878.75L7638.57 7147.18C7640.23 7143.86 7643.14 7141.34 7646.66 7140.17C7650.17 7139 7654.01 7139.27 7657.33 7140.93C7660.65 7142.59 7663.17 7145.5 7664.34 7149.01C7665.51 7152.53 7665.24 7156.37 7663.58 7159.69L7350.95 7891.25Z" fill="#0C1A37"/>
<path d="M7794.89 6865.81C7793.23 6869.13 7790.32 6871.65 7786.81 6872.82C7783.29 6873.99 7779.45 6873.72 7776.13 6872.06C7772.81 6870.4 7770.29 6867.5 7769.12 6863.98C7767.95 6860.46 7768.22 6856.62 7769.88 6853.3L7869.92 6478.14C7870.33 6476.5 7871.06 6474.96 7872.07 6473.6C7873.08 6472.23 7874.34 6471.09 7875.8 6470.22C7877.25 6469.34 7878.86 6468.77 7880.53 6468.52C7882.2 6468.27 7883.91 6468.35 7885.55 6468.76C7887.2 6469.17 7888.74 6469.9 7890.1 6470.91C7891.46 6471.92 7892.61 6473.19 7893.48 6474.64C7894.35 6476.09 7894.93 6477.7 7895.18 6479.37C7895.43 6481.05 7895.34 6482.75 7894.93 6484.4L7794.89 6859.56V6865.81ZM7944.95 6303.07C7943.3 6306.38 7940.39 6308.91 7936.87 6310.08C7933.35 6311.25 7929.51 6310.98 7926.2 6309.32C7922.88 6307.66 7920.36 6304.75 7919.18 6301.24C7918.01 6297.72 7918.28 6293.88 7919.94 6290.56L8101.27 5609.02C8101.68 5607.38 8102.41 5605.83 8103.42 5604.47C8104.43 5603.11 8105.69 5601.96 8107.15 5601.09C8108.6 5600.22 8110.21 5599.64 8111.88 5599.39C8113.55 5599.14 8115.26 5599.23 8116.9 5599.64C8118.55 5600.05 8120.09 5600.78 8121.45 5601.79C8122.81 5602.79 8123.96 5604.06 8124.83 5605.51C8125.7 5606.96 8126.28 5608.57 8126.53 5610.25C8126.78 5611.92 8126.69 5613.63 8126.28 5615.27L7944.95 6296.81V6303.07Z" fill="#0C1A37"/>
<path d="M9051.68 6590.69L9045.43 6596.94L7782.38 6865.81C7780.74 6866.22 7779.03 6866.3 7777.36 6866.05C7775.69 6865.81 7774.08 6865.23 7772.63 6864.36C7771.17 6863.49 7769.91 6862.34 7768.9 6860.98C7767.89 6859.62 7767.16 6858.07 7766.75 6856.43C7766.34 6854.79 7766.26 6853.08 7766.51 6851.41C7766.76 6849.73 7767.33 6848.12 7768.2 6846.67C7769.08 6845.22 7770.22 6843.96 7771.58 6842.95C7772.94 6841.94 7774.49 6841.21 7776.13 6840.8L9039.18 6571.93C9041.51 6571.6 9043.89 6571.94 9046.04 6572.9C9048.19 6573.87 9050.02 6575.42 9051.33 6577.38C9052.64 6579.34 9053.36 6581.63 9053.42 6583.98C9053.49 6586.34 9052.88 6588.66 9051.68 6590.69Z" fill="#0C1A37"/>
<path d="M8757.81 7578.62C8755.32 7581.93 8751.62 7584.13 8747.51 7584.71C8743.41 7585.3 8739.24 7584.23 8735.92 7581.74C8732.61 7579.26 8730.41 7575.55 8729.83 7571.45C8729.24 7567.35 8730.31 7563.18 8732.8 7559.86C8838.54 7420.08 8912.04 7258.64 8948.03 7087.11C8984.03 6915.58 8981.63 6738.21 8940.99 6567.72C8900.36 6397.22 8822.51 6237.83 8713.02 6100.97C8603.53 5964.11 8465.12 5853.17 8307.7 5776.11C8150.29 5699.05 7977.77 5657.77 7802.52 5655.23C7627.27 5652.7 7453.63 5688.97 7294.06 5761.45C7134.48 5833.93 6992.91 5940.82 6879.51 6074.46C6766.11 6208.1 6683.69 6365.17 6638.14 6534.42C6637.73 6536.06 6637 6537.6 6635.99 6538.96C6634.99 6540.32 6633.72 6541.47 6632.27 6542.34C6630.82 6543.21 6629.21 6543.79 6627.53 6544.04C6625.86 6544.29 6624.15 6544.21 6622.51 6543.8C6620.87 6543.39 6619.32 6542.66 6617.96 6541.65C6616.6 6540.64 6615.45 6539.37 6614.58 6537.92C6613.71 6536.47 6613.14 6534.86 6612.89 6533.19C6612.64 6531.51 6612.72 6529.81 6613.13 6528.16C6660.57 6356.57 6745.2 6197.51 6861.02 6062.3C6976.83 5927.08 7120.99 5819.01 7283.26 5745.77C7445.53 5672.53 7621.94 5635.9 7799.95 5638.49C7977.97 5641.08 8153.23 5682.83 8313.3 5760.76C8473.37 5838.7 8614.33 5950.91 8726.16 6089.44C8837.99 6227.97 8917.95 6389.42 8960.38 6562.33C9002.8 6735.23 9006.65 6915.36 8971.64 7089.92C8936.63 7264.48 8863.63 7429.19 8757.81 7572.37" fill="#6897AE"/>
</g>
<mask id="mask2_369_51" style="mask-type:luminance" maskUnits="userSpaceOnUse" x="580" y="4980" width="5256" height="3720">
<path d="M580 4980H5835.43V8699.99H580" fill="white"/>
</mask>
<g mask="url(#mask2_369_51)">
<path d="M2558.59 7333.08C2521.14 7295.63 2489.93 7233.22 2489.93 7177.04C2514.89 7214.49 2546.1 7289.39 2558.59 7333.08ZM3313.82 7720.06C3082.88 7763.75 2826.97 7670.13 2670.93 7482.88C2845.7 7638.92 3057.91 7726.3 3313.82 7720.06ZM3981.67 7120.87C3975.43 7226.98 3919.25 7345.57 3838.11 7420.47C3975.43 7164.56 3937.98 7214.49 3981.67 7120.87ZM3781.94 6403.08C3900.53 6502.95 3987.91 6665.23 3994.15 6815.03C3944.22 6652.75 3888.05 6540.4 3781.94 6403.08ZM2708.38 6371.88C2851.94 6222.08 3082.88 6140.94 3288.85 6178.39C3076.64 6178.39 2889.39 6240.8 2708.38 6371.88ZM2564.83 7033.49C2546.1 6989.8 2546.1 6927.38 2564.83 6883.69C2571.07 6921.14 2577.31 6989.8 2564.83 7033.49ZM3057.91 7607.71C2851.94 7564.02 2670.93 7401.74 2608.52 7195.77C2702.14 7389.26 2851.94 7526.57 3057.91 7607.71ZM3806.91 7339.32C3769.46 7426.71 3682.07 7507.85 3588.45 7539.06C3700.8 7451.67 3694.56 7451.67 3806.91 7339.32ZM3888.05 6690.2C3950.46 6808.79 3962.95 6971.07 3919.25 7095.9C3931.74 6946.1 3925.5 6833.76 3888.05 6690.2ZM3014.22 6296.98C3182.75 6222.08 3401.2 6234.56 3557.24 6328.19C3382.48 6265.77 3207.71 6247.04 3014.22 6296.98Z" fill="white"/>
<path d="M3526.03 7326.84C3482.34 7376.77 3413.68 7407.98 3363.75 7364.29C3245.16 7420.47 3051.67 7333.08 3014.22 7208.25C2876.91 7195.77 2764.56 7077.18 2795.77 6971.07C2720.87 6815.03 2845.7 6652.75 3014.22 6671.47C3057.91 6640.27 3120.33 6627.78 3176.5 6640.27C3301.34 6496.71 3551 6559.13 3607.17 6746.37C3688.31 6765.1 3756.97 6833.76 3775.7 6908.65C3937.98 6527.92 2933.08 6159.66 2695.9 6727.65C2483.69 7233.22 3157.78 7763.75 3600.93 7345.57C3557.24 7345.57 3526.03 7326.84 3526.03 7326.84Z" fill="white"/>
<path d="M2939.32 7014.76C2702.14 7033.49 2134.16 7045.97 1847.04 7033.49C2159.12 7008.52 2720.87 7008.52 2939.32 7014.76ZM2439.99 6084.76C2602.28 6222.08 2833.22 6459.26 2970.53 6621.54C2808.25 6484.23 2577.31 6247.04 2439.99 6084.76ZM2283.95 6459.26C2483.69 6552.88 2789.52 6721.41 2983.01 6846.24C2777.04 6752.61 2471.2 6584.09 2283.95 6459.26ZM3188.99 7214.49C3213.95 7470.4 3226.44 7907.31 3220.19 8069.59C3195.23 7857.38 3182.75 7414.22 3188.99 7214.49ZM3014.22 7208.25C2895.63 7370.53 2702.14 7607.71 2558.59 7745.03C2677.18 7582.75 2876.91 7351.81 3014.22 7208.25ZM3607.17 7145.84C3794.42 7208.25 4081.54 7326.84 4256.3 7414.22C4069.05 7351.81 3788.18 7233.22 3607.17 7145.84ZM3538.52 6840C3725.76 6758.86 4019.12 6652.75 4212.61 6602.82C4031.6 6683.96 3738.25 6790.06 3538.52 6840ZM3345.03 6752.61C3382.48 6534.16 3507.31 6016.11 3588.45 5766.44C3538.52 6022.35 3413.68 6540.4 3345.03 6752.61ZM2920.6 5953.69C2976.77 6078.52 3032.95 6265.77 3051.67 6378.12C3007.98 6278.25 2945.56 6084.76 2920.6 5953.69ZM4262.54 7089.66C4125.23 7095.9 3913.01 7070.94 3800.66 7039.73C3913.01 7039.73 4125.23 7058.45 4262.54 7089.66ZM3675.83 7919.79C3600.93 7819.93 3519.79 7657.65 3488.58 7564.02C3551 7645.16 3632.14 7807.44 3675.83 7919.79ZM2196.57 6665.23C2296.44 6671.47 2439.99 6702.68 2514.89 6733.89C2433.75 6733.89 2290.2 6702.68 2196.57 6665.23Z" fill="white"/>
<path d="M3850.6 7495.36C3844.35 7514.09 3682.07 7926.04 3026.71 7782.48C3026.71 7782.48 3101.6 7863.62 3226.44 7876.1C3345.03 7882.34 3376.23 7863.62 3376.23 7863.62C3376.23 7863.62 3513.55 7919.79 3582.21 7888.59C3650.87 7857.38 3700.8 7770 3700.8 7770C3700.8 7770 3775.7 7770 3838.11 7676.37C3894.29 7588.99 3881.8 7570.26 3881.8 7570.26C3881.8 7570.26 3937.98 7551.54 3937.98 7464.16C3931.74 7376.77 3850.6 7495.36 3850.6 7495.36ZM3888.05 6340.67C3888.05 6340.67 4062.81 6540.4 4075.29 6721.41C4075.29 6721.41 4131.47 6584.09 4118.99 6509.19C4112.74 6428.05 4175.16 6428.05 4125.23 6353.15C4075.29 6284.49 3975.43 6309.46 3975.43 6309.46C3975.43 6309.46 3900.53 6222.08 3806.91 6203.35C3707.04 6190.87 3688.31 6203.35 3688.31 6203.35L3888.05 6340.67ZM2546.1 6428.05C2546.1 6428.05 2458.72 6446.78 2427.51 6534.16L2383.82 6634.02C2383.82 6634.02 2321.4 6640.27 2283.95 6721.41C2246.51 6808.79 2271.47 6815.03 2271.47 6815.03C2271.47 6815.03 2227.78 6821.27 2209.06 6921.14C2190.33 7021 2321.4 7108.39 2321.4 7108.39C2346.37 7177.04 2402.55 7202.01 2402.55 7202.01C2340.13 6983.55 2452.48 6646.51 2546.1 6428.05Z" fill="white"/>
<path d="M2077.98 6009.86C2186.61 5860.89 2323.75 5734.99 2481.44 5639.46C2639.14 5543.93 2814.24 5480.69 2996.58 5453.39C3178.91 5426.1 3364.86 5435.31 3543.61 5480.47C3722.36 5525.64 3890.36 5605.87 4037.85 5716.51C4186.82 5825.14 4312.72 5962.28 4408.25 6119.97C4503.78 6277.66 4567.02 6452.76 4594.32 6635.1C4621.61 6817.44 4612.4 7003.38 4567.24 7182.14C4522.07 7360.89 4441.84 7528.89 4331.2 7676.37C4222.57 7825.34 4085.43 7951.25 3927.74 8046.78C3770.05 8142.3 3594.95 8205.55 3412.61 8232.84C3230.27 8260.14 3044.32 8250.93 2865.57 8205.76C2686.82 8160.59 2518.82 8080.36 2371.34 7969.73C2222.37 7861.1 2096.46 7723.96 2000.93 7566.26C1905.41 7408.57 1842.16 7233.47 1814.87 7051.13C1787.57 6868.79 1796.78 6682.85 1841.95 6504.1C1887.12 6325.35 1967.35 6157.35 2077.98 6009.86ZM2015.57 5966.17C1782.16 6281.52 1683.58 6676.68 1741.52 7064.71C1799.47 7452.74 2009.18 7801.86 2324.53 8035.26C2639.88 8268.67 3035.03 8367.25 3423.06 8309.31C3811.09 8251.37 4160.21 8041.65 4393.62 7726.3C4627.02 7410.96 4725.6 7015.8 4667.66 6627.77C4609.72 6239.74 4400.01 5890.62 4084.66 5657.21C3928.51 5541.64 3751.13 5457.96 3562.65 5410.94C3374.16 5363.92 3178.26 5354.48 2986.12 5383.17C2598.09 5441.11 2248.97 5650.82 2015.57 5966.17Z" fill="#0C1A37"/>
<path d="M4250.06 7613.96C4148.42 7751.25 4020.74 7867.18 3874.3 7955.12C3727.86 8043.07 3565.53 8101.31 3396.58 8126.53C3227.63 8151.74 3055.37 8143.43 2889.63 8102.06C2723.89 8060.7 2567.93 7987.1 2430.63 7885.46C2293.34 7783.83 2177.41 7656.14 2089.46 7509.7C2001.52 7363.26 1943.28 7200.93 1918.06 7031.98C1892.85 6863.03 1901.16 6690.77 1942.52 6525.04C1983.89 6359.3 2057.49 6203.33 2159.12 6066.04C2364.39 5788.76 2671.4 5604.39 3012.61 5553.47C3353.81 5502.55 3701.28 5589.26 3978.55 5794.53C4255.83 5999.8 4440.2 6306.8 4491.12 6648.01C4542.04 6989.22 4455.33 7336.68 4250.06 7613.96ZM2184.09 6091C2076.12 6224.74 1996.33 6378.95 1949.55 6544.34C1902.78 6709.73 1889.97 6882.88 1911.9 7053.36C1933.83 7223.84 1990.05 7388.11 2077.18 7536.27C2164.3 7684.44 2280.52 7813.43 2418.83 7915.47C2557.14 8017.52 2714.67 8090.51 2881.95 8130.04C3049.22 8169.57 3222.77 8174.82 3392.13 8145.48C3561.48 8116.14 3723.15 8052.81 3867.38 7959.32C4011.61 7865.82 4135.41 7744.1 4231.34 7601.47C4414.44 7329.22 4485.38 6996.81 4429.38 6673.53C4373.37 6350.25 4194.74 6061.07 3930.73 5866.28C3666.72 5671.5 3337.71 5586.14 3012.3 5628C2686.89 5669.87 2390.2 5835.73 2184.09 6091Z" fill="#0C1A37"/>
<path d="M3001.74 5679.06H2995.5C2989.26 5685.3 2983.02 5679.06 2983.02 5672.82L2964.29 5579.19C2964.29 5575.88 2965.61 5572.71 2967.95 5570.37C2970.29 5568.03 2973.46 5566.71 2976.77 5566.71C2980.08 5566.71 2983.26 5568.03 2985.6 5570.37C2987.94 5572.71 2989.26 5575.88 2989.26 5579.19L3007.98 5666.58L3001.74 5679.06ZM3020.47 5760.2L3014.22 5766.44C3001.74 5772.68 2995.5 5766.44 2995.5 5760.2L2989.26 5728.99C2988.85 5726.94 2988.85 5724.83 2989.25 5722.78C2989.66 5720.73 2990.46 5718.78 2991.62 5717.04C2992.78 5715.31 2994.27 5713.81 2996.01 5712.65C2997.74 5711.49 2999.69 5710.68 3001.74 5710.27C3003.79 5709.86 3005.9 5709.86 3007.95 5710.26C3010 5710.67 3011.95 5711.47 3013.69 5712.63C3015.43 5713.79 3016.92 5715.28 3018.08 5717.02C3019.25 5718.75 3020.06 5720.7 3020.47 5722.75V5760.2ZM3182.75 6671.47L3176.51 6677.72L3157.78 6665.23L3014.22 5866.31C3013.4 5862.17 3014.25 5857.87 3016.59 5854.36C3018.93 5850.85 3022.57 5848.41 3026.71 5847.58C3030.85 5846.75 3035.14 5847.6 3038.65 5849.95C3042.17 5852.29 3044.6 5855.93 3045.43 5860.07L3188.99 6665.23L3182.75 6671.47ZM3213.95 6852.48L2452.48 7888.59C2451.25 7890.22 2449.71 7891.61 2447.95 7892.65C2446.18 7893.69 2444.23 7894.38 2442.2 7894.67C2440.17 7894.96 2438.11 7894.85 2436.12 7894.34C2434.14 7893.83 2432.27 7892.94 2430.63 7891.71C2428.99 7890.48 2427.61 7888.94 2426.57 7887.17C2425.53 7885.41 2424.84 7883.46 2424.55 7881.43C2424.26 7879.4 2424.37 7877.34 2424.88 7875.35C2425.39 7873.37 2426.28 7871.5 2427.51 7869.86L3195.23 6833.76C3196.46 6832.53 3197.92 6831.55 3199.53 6830.89C3201.13 6830.22 3202.85 6829.88 3204.59 6829.88C3206.33 6829.88 3208.05 6830.22 3209.66 6830.89C3211.27 6831.55 3212.73 6832.53 3213.95 6833.76C3215.18 6834.98 3216.16 6836.44 3216.83 6838.05C3217.49 6839.66 3217.83 6841.38 3217.83 6843.12C3217.83 6844.86 3217.49 6846.58 3216.83 6848.18C3216.16 6849.79 3215.18 6851.25 3213.95 6852.48ZM3476.1 6140.94C3474.45 6144.25 3471.54 6146.77 3468.03 6147.94C3464.52 6149.11 3460.69 6148.83 3457.38 6147.18C3454.07 6145.52 3451.55 6142.62 3450.38 6139.11C3449.21 6135.6 3449.48 6131.77 3451.14 6128.45L3632.14 5629.13C3632.96 5627.49 3634.1 5626.03 3635.48 5624.82C3636.87 5623.62 3638.47 5622.71 3640.21 5622.13C3641.95 5621.55 3643.79 5621.32 3645.61 5621.45C3647.44 5621.58 3649.23 5622.07 3650.87 5622.88C3652.51 5623.7 3653.97 5624.84 3655.17 5626.22C3656.37 5627.61 3657.29 5629.22 3657.87 5630.95C3658.45 5632.69 3658.68 5634.53 3658.55 5636.36C3658.42 5638.19 3657.93 5639.97 3657.11 5641.61L3476.1 6140.94ZM3313.82 6590.33C3312.17 6593.64 3309.26 6596.16 3305.75 6597.33C3302.24 6598.5 3298.41 6598.23 3295.1 6596.57C3291.79 6594.92 3289.27 6592.02 3288.1 6588.5C3286.93 6584.99 3287.2 6581.16 3288.85 6577.85L3388.72 6296.98C3390.38 6293.67 3393.28 6291.15 3396.79 6289.98C3400.3 6288.81 3404.13 6289.08 3407.44 6290.74C3410.76 6292.39 3413.27 6295.29 3414.44 6298.81C3415.61 6302.32 3415.34 6306.15 3413.69 6309.46L3313.82 6590.33Z" fill="#0C1A37"/>
<path d="M4468.51 6559.12L4462.27 6565.37L3207.71 6858.72C3206.07 6859.13 3204.37 6859.21 3202.7 6858.97C3201.02 6858.72 3199.42 6858.14 3197.97 6857.27C3196.52 6856.4 3195.26 6855.26 3194.25 6853.9C3193.25 6852.54 3192.52 6851 3192.11 6849.36C3191.7 6847.72 3191.61 6846.02 3191.86 6844.34C3192.11 6842.67 3192.69 6841.07 3193.56 6839.62C3194.43 6838.17 3195.57 6836.91 3196.93 6835.9C3198.29 6834.89 3199.83 6834.16 3201.47 6833.76L4456.03 6540.4C4458.36 6540.07 4460.73 6540.41 4462.88 6541.37C4465.03 6542.33 4466.86 6543.88 4468.16 6545.84C4469.47 6547.79 4470.19 6550.08 4470.25 6552.43C4470.32 6554.78 4469.71 6557.1 4468.51 6559.12Z" fill="#0C1A37"/>
<path d="M4418.58 7301.88L4406.1 7308.12L3201.47 6858.72C3198.16 6857.89 3195.31 6855.78 3193.56 6852.86C3191.8 6849.93 3191.28 6846.43 3192.11 6843.12C3192.93 6839.81 3195.04 6836.96 3197.97 6835.2C3200.9 6833.45 3204.4 6832.93 3207.71 6833.76L4412.34 7283.15C4414.14 7283.78 4415.77 7284.81 4417.1 7286.17C4418.44 7287.53 4419.45 7289.18 4420.05 7290.98C4420.65 7292.79 4420.83 7294.71 4420.58 7296.6C4420.32 7298.49 4419.64 7300.29 4418.58 7301.88ZM3594.69 7383.02C3593.52 7384.34 3592.08 7385.41 3590.46 7386.14C3588.85 7386.87 3587.1 7387.24 3585.33 7387.24C3583.56 7387.24 3581.81 7386.87 3580.19 7386.14C3578.58 7385.41 3577.14 7384.34 3575.97 7383.02L3457.37 7220.73C3454.89 7217.42 3453.83 7213.26 3454.41 7209.17C3455 7205.07 3457.18 7201.37 3460.5 7198.89C3463.81 7196.41 3467.97 7195.34 3472.06 7195.92C3476.16 7196.51 3479.86 7198.7 3482.34 7202.01L3594.69 7364.29V7383.02ZM3719.52 7551.54V7557.78C3713.28 7564.02 3700.8 7557.78 3700.8 7551.54L3638.38 7470.4C3637.15 7468.76 3636.26 7466.89 3635.75 7464.91C3635.24 7462.92 3635.13 7460.86 3635.42 7458.83C3635.71 7456.8 3636.39 7454.85 3637.44 7453.09C3638.48 7451.32 3639.86 7449.78 3641.5 7448.55C3643.14 7447.32 3645.01 7446.43 3646.99 7445.92C3648.98 7445.41 3651.04 7445.3 3653.07 7445.59C3655.1 7445.88 3657.05 7446.56 3658.81 7447.61C3660.58 7448.65 3662.12 7450.03 3663.35 7451.67L3719.52 7539.06V7551.54ZM3625.9 8069.59L3619.66 8075.83L3600.93 8069.59L3270.13 7089.66C3269.31 7087.61 3268.9 7085.42 3268.93 7083.21C3268.95 7081.01 3269.41 7078.83 3270.28 7076.8C3271.15 7074.77 3272.41 7072.93 3273.99 7071.39C3275.57 7069.85 3277.44 7068.63 3279.49 7067.82C3281.54 7067 3283.73 7066.59 3285.94 7066.61C3288.14 7066.64 3290.32 7067.1 3292.35 7067.97C3296.45 7069.73 3299.68 7073.04 3301.33 7077.18L3625.9 8057.11V8069.59Z" fill="#0C1A37"/>
<path d="M3925.5 5891.27H3906.77C3519.79 5604.16 3001.74 5585.44 2589.79 5835.1C2588.15 5835.92 2586.37 5836.41 2584.54 5836.54C2582.71 5836.67 2580.88 5836.44 2579.14 5835.86C2577.4 5835.28 2575.79 5834.36 2574.41 5833.16C2573.02 5831.96 2571.89 5830.5 2571.07 5828.86C2570.25 5827.22 2569.76 5825.43 2569.63 5823.61C2569.5 5821.78 2569.73 5819.94 2570.31 5818.2C2570.89 5816.46 2571.81 5814.86 2573.01 5813.47C2574.21 5812.09 2575.67 5810.95 2577.31 5810.13C2782.85 5685.56 3020.82 5624.98 3260.91 5636.09C3500.99 5647.21 3732.34 5729.52 3925.5 5872.55V5891.27ZM4181.4 7564.02C4180.17 7565.66 4178.63 7567.04 4176.87 7568.09C4175.11 7569.13 4173.15 7569.82 4171.13 7570.11C4169.1 7570.4 4167.03 7570.28 4165.05 7569.78C4163.06 7569.27 4161.2 7568.37 4159.56 7567.14C4157.92 7565.91 4156.54 7564.37 4155.49 7562.61C4154.45 7560.85 4153.76 7558.9 4153.47 7556.87C4153.18 7554.84 4153.29 7552.77 4153.8 7550.79C4154.31 7548.8 4155.21 7546.94 4156.44 7545.3C4343.68 7295.63 4424.82 6983.55 4374.89 6671.47C4374.06 6668.16 4374.59 6664.66 4376.34 6661.73C4378.1 6658.81 4380.94 6656.7 4384.25 6655.87C4387.56 6655.04 4391.07 6655.56 4393.99 6657.32C4396.92 6659.07 4399.03 6661.92 4399.86 6665.23C4449.79 6983.55 4368.65 7301.88 4181.4 7564.02Z" fill="#6897AE"/>
</g>
<mask id="mask3_369_51" style="mask-type:luminance" maskUnits="userSpaceOnUse" x="1240" y="1810" width="9189" height="6504">
<path d="M1240 1810H10428.2V8313.79H1240" fill="white"/>
</mask>
<g mask="url(#mask3_369_51)">
<path d="M5113.9 6742.4C5055.26 6742.4 4997.33 6755.18 4944.12 6779.83C4890.92 6804.49 4843.73 6840.44 4805.82 6885.18C4767.92 6929.93 4740.22 6982.39 4724.64 7038.92C4709.07 7095.45 4705.99 7154.7 4715.63 7212.54C4725.27 7270.38 4747.4 7325.43 4780.47 7373.85C4813.53 7422.28 4856.75 7462.92 4907.12 7492.95C4957.48 7522.98 5013.79 7541.68 5072.11 7547.75C5130.43 7553.82 5189.38 7547.12 5244.85 7528.1C5335.26 7497.1 5411.74 7435.04 5460.69 7352.95C5509.64 7270.85 5527.88 7174.06 5512.16 7079.79C5496.45 6985.51 5447.81 6899.87 5374.88 6838.09C5301.95 6776.31 5209.48 6742.4 5113.9 6742.4ZM5397.62 6971.57L5266.67 7047.95C5233.94 7069.78 5190.29 7047.95 5179.37 7004.3L5157.55 6862.44C5146.64 6829.7 5179.37 6796.97 5212.11 6796.97C5288.5 6807.88 5353.97 6829.7 5408.53 6884.27C5430.36 6906.09 5430.36 6949.74 5397.62 6971.57ZM5092.07 6873.35L5124.81 7026.13C5124.81 7058.86 5102.99 7091.6 5059.34 7091.6L4906.56 7069.78C4873.83 7069.78 4852 7026.13 4862.91 6993.39C4895.65 6927.92 4939.3 6873.35 5004.78 6840.62C5037.51 6818.79 5081.16 6840.62 5092.07 6873.35ZM4841.09 7200.73C4841.09 7167.99 4862.91 7135.25 4906.56 7135.25L5048.43 7157.08C5092.07 7157.08 5113.9 7200.73 5102.99 7233.46L5037.51 7364.41C5026.6 7408.06 4972.04 7408.06 4950.21 7386.24C4895.65 7342.59 4862.91 7277.11 4841.09 7200.73ZM5092.07 7397.15L5157.55 7255.29C5168.46 7222.55 5223.02 7211.64 5244.85 7244.38L5353.97 7342.59C5386.71 7364.41 5375.8 7408.06 5343.06 7429.89C5280.41 7466.26 5207.73 7481.56 5135.72 7473.54C5102.99 7473.54 5081.16 7429.89 5092.07 7397.15ZM5397.62 7288.02L5288.5 7189.81C5255.76 7167.99 5266.67 7124.34 5299.41 7102.51L5430.36 7026.13C5463.1 7004.3 5506.75 7026.13 5506.75 7058.86C5528.57 7135.25 5517.66 7211.64 5484.92 7277.11C5474.01 7309.85 5430.36 7320.76 5397.62 7288.02Z" fill="#67A3C3"/>
<path d="M4862.92 7200.73C4862.92 7178.9 4884.74 7167.99 4906.57 7167.99H5059.34L5092.08 7189.81L5179.38 7178.9L4775.62 7080.69L4786.53 7200.73H4862.92ZM5190.29 7178.9L5277.59 7146.16C5266.68 7124.34 5277.59 7102.51 5299.41 7091.6L5408.54 7004.3C5441.27 6982.48 5484.92 6993.39 5495.84 7026.13L5506.75 7047.95L5561.31 7026.13C5552.98 6999.63 5542.02 6974.04 5528.57 6949.74L5517.66 6917L5463.1 6851.53L5190.29 7178.9ZM3378.83 6851.53C3378.83 6802.33 3359.29 6755.14 3324.5 6720.35C3289.71 6685.56 3242.52 6666.02 3193.32 6666.02C3144.12 6666.02 3096.93 6685.56 3062.14 6720.35C3027.35 6755.14 3007.81 6802.33 3007.81 6851.53C3007.81 6900.73 3027.35 6947.91 3062.14 6982.7C3096.93 7017.49 3144.12 7037.04 3193.32 7037.04C3242.52 7037.04 3289.71 7017.49 3324.5 6982.7C3359.29 6947.91 3378.83 6900.73 3378.83 6851.53Z" fill="#113952"/>
<path d="M5212.11 6742.4L3193.32 6687.84C3188.98 6687.84 3184.82 6686.12 3181.75 6683.05C3178.68 6679.98 3176.95 6675.82 3176.95 6671.47C3176.95 6667.13 3178.68 6662.97 3181.75 6659.9C3184.82 6656.83 3188.98 6655.11 3193.32 6655.11L5212.11 6709.67C5216.45 6709.67 5220.62 6711.39 5223.69 6714.46C5226.76 6717.53 5228.48 6721.69 5228.48 6726.04C5228.48 6730.38 5226.76 6734.54 5223.69 6737.61C5220.62 6740.68 5216.45 6742.4 5212.11 6742.4ZM5102.99 7549.92H5092.08L3149.67 7047.95C3148.24 7047.24 3146.96 7046.24 3145.91 7045.03C3144.86 7043.82 3144.06 7042.42 3143.55 7040.9C3143.05 7039.38 3142.84 7037.77 3142.96 7036.17C3143.07 7034.58 3143.5 7033.02 3144.21 7031.58C3144.93 7030.15 3145.92 7028.87 3147.13 7027.82C3148.34 7026.77 3149.75 7025.97 3151.27 7025.47C3152.79 7024.96 3154.39 7024.76 3155.99 7024.87C3157.59 7024.98 3159.15 7025.41 3160.58 7026.13L5102.99 7528.1C5105.88 7528.1 5108.66 7529.25 5110.71 7531.29C5112.75 7533.34 5113.9 7536.12 5113.9 7539.01C5113.9 7541.9 5112.75 7544.68 5110.71 7546.73C5108.66 7548.77 5105.88 7549.92 5102.99 7549.92Z" fill="#376E92"/>
<path d="M5179.37 7560.83L5048.43 7539.01C5046.99 7538.29 5045.71 7537.3 5044.67 7536.09C5043.62 7534.88 5042.81 7533.48 5042.31 7531.96C5041.8 7530.44 5041.6 7528.83 5041.71 7527.23C5041.83 7525.63 5042.25 7524.07 5042.97 7522.64C5043.69 7521.21 5044.68 7519.93 5045.89 7518.88C5047.1 7517.83 5048.5 7517.03 5050.02 7516.52C5051.54 7516.02 5053.15 7515.81 5054.75 7515.93C5056.34 7516.04 5057.91 7516.47 5059.34 7517.19C5110.93 7525.07 5163.56 7522.71 5214.24 7510.25C5264.92 7497.79 5312.65 7475.47 5354.7 7444.56C5396.75 7413.66 5432.31 7374.77 5459.33 7330.12C5486.36 7285.48 5504.32 7235.95 5512.2 7184.36C5520.08 7132.77 5517.73 7080.13 5505.27 7029.45C5492.81 6978.77 5470.49 6931.05 5439.58 6888.99C5408.67 6846.94 5369.79 6811.39 5325.14 6784.36C5280.5 6757.34 5230.96 6739.37 5179.37 6731.49C5176.48 6731.49 5173.7 6730.34 5171.66 6728.3C5169.61 6726.25 5168.46 6723.47 5168.46 6720.58C5168.46 6717.69 5169.61 6714.91 5171.66 6712.86C5173.7 6710.82 5176.48 6709.67 5179.37 6709.67C5292.25 6709.67 5400.5 6754.51 5480.31 6834.32C5560.12 6914.13 5604.96 7022.38 5604.96 7135.25C5604.96 7248.12 5560.12 7356.37 5480.31 7436.18C5400.5 7516 5292.25 7560.83 5179.37 7560.83ZM3149.67 7047.95C3062.37 7026.13 2996.89 6949.74 2996.89 6851.53C2996.89 6742.4 3084.19 6655.11 3193.32 6655.11C3197.66 6655.11 3201.82 6656.83 3204.89 6659.9C3207.96 6662.97 3209.69 6667.13 3209.69 6671.47C3209.69 6675.82 3207.96 6679.98 3204.89 6683.05C3201.82 6686.12 3197.66 6687.84 3193.32 6687.84C3153.66 6691.32 3116.39 6708.25 3087.67 6735.82C3058.96 6763.39 3040.52 6799.95 3035.43 6839.43C3030.33 6878.91 3038.88 6918.95 3059.66 6952.9C3080.44 6986.86 3112.2 7012.69 3149.67 7026.13C3152.56 7026.13 3155.34 7027.28 3157.38 7029.32C3159.43 7031.37 3160.58 7034.15 3160.58 7037.04C3160.58 7039.93 3159.43 7042.71 3157.38 7044.76C3155.34 7046.8 3152.56 7047.95 3149.67 7047.95Z" fill="#376E92"/>
<path d="M3040.54 7069.78H3029.63C2964.16 7015.21 2920.51 6938.83 2920.51 6851.53C2920.51 6709.67 3040.54 6589.63 3193.32 6589.63C3197.66 6589.63 3201.82 6591.36 3204.89 6594.43C3207.96 6597.5 3209.69 6601.66 3209.69 6606C3209.69 6610.34 3207.96 6614.5 3204.89 6617.57C3201.82 6620.64 3197.66 6622.37 3193.32 6622.37C3144.73 6624.45 3097.91 6641.23 3059.07 6670.51C3020.23 6699.78 2991.2 6740.16 2975.82 6786.3C2960.44 6832.45 2959.44 6882.17 2972.94 6928.89C2986.45 6975.62 3013.83 7017.13 3051.46 7047.95C3054.35 7049.4 3056.55 7051.94 3057.57 7055.01C3058.6 7058.08 3058.36 7061.43 3056.91 7064.32C3055.47 7067.21 3052.93 7069.42 3049.86 7070.44C3046.79 7071.46 3043.44 7071.22 3040.54 7069.78Z" fill="#67A3C3"/>
<path d="M4982.95 4658.14H5070.25V4559.92H4982.95V4658.14Z" fill="#B4D2D0"/>
<path d="M3204.23 6851.53C3204.23 6855.87 3202.5 6860.03 3199.44 6863.1C3196.37 6866.17 3192.2 6867.9 3187.86 6867.9C3183.52 6867.9 3179.36 6866.17 3176.29 6863.1C3173.22 6860.03 3171.49 6855.87 3171.49 6851.53C3171.49 6847.19 3173.22 6843.02 3176.29 6839.95C3179.36 6836.88 3183.52 6835.16 3187.86 6835.16C3192.2 6835.16 3196.37 6836.88 3199.44 6839.95C3202.5 6843.02 3204.23 6847.19 3204.23 6851.53Z" fill="#113952"/>
<path d="M4000.84 4047.04C3996.33 4044.06 3992.64 4040 3990.09 4035.24C3987.53 4030.48 3986.2 4025.16 3986.2 4019.76C3986.2 4014.36 3987.53 4009.04 3990.09 4004.28C3992.64 3999.52 3996.33 3995.47 4000.84 3992.48H4099.05C4103.98 3989.21 4109.71 3987.33 4115.62 3987.06C4121.53 3986.78 4127.41 3988.12 4132.63 3990.92C4137.84 3993.71 4142.2 3997.87 4145.24 4002.95C4148.28 4008.03 4149.88 4013.84 4149.88 4019.76C4149.88 4025.68 4148.28 4031.49 4145.24 4036.57C4142.2 4041.65 4137.84 4045.81 4132.63 4048.61C4127.41 4051.41 4121.53 4052.74 4115.62 4052.46C4109.71 4052.19 4103.98 4050.31 4099.05 4047.04H4000.84Z" fill="#67A3C3"/>
<path d="M4502.8 3992.48C4501.37 3993.2 4499.81 3993.62 4498.21 3993.74C4496.62 3993.85 4495.01 3993.65 4493.49 3993.14C4491.97 3992.64 4490.57 3991.83 4489.35 3990.78C4488.14 3989.73 4487.15 3988.46 4486.44 3987.02C4485.72 3985.59 4485.29 3984.03 4485.18 3982.43C4485.07 3980.83 4485.27 3979.23 4485.77 3977.71C4486.28 3976.19 4487.08 3974.78 4488.13 3973.57C4489.18 3972.36 4490.46 3971.37 4491.89 3970.66C4546.45 3948.83 4590.1 3905.18 4633.75 3861.53L4666.49 3817.88C4667.94 3814.99 4670.48 3812.79 4673.55 3811.76C4676.61 3810.74 4679.97 3810.98 4682.86 3812.43C4685.75 3813.87 4687.95 3816.41 4688.98 3819.48C4690 3822.55 4689.76 3825.9 4688.32 3828.79L4655.58 3872.44C4614.32 3923.43 4562.1 3964.45 4502.8 3992.48ZM6270.61 4821.82C6096.02 4821.82 5888.68 4767.26 5681.34 4614.49C5678.45 4613.04 5676.25 4610.5 5675.23 4607.43C5674.2 4604.36 5674.44 4601.01 5675.89 4598.12C5677.34 4595.22 5679.87 4593.02 5682.94 4592C5686.01 4590.98 5689.36 4591.22 5692.26 4592.66C6303.35 5018.25 6772.58 4669.05 6914.45 4494.45C7045.39 4330.76 7154.52 4090.69 7263.64 3883.36C7361.85 3676.02 7449.15 3501.42 7525.54 3425.04C7623.75 3337.74 7765.61 3326.82 7852.91 3414.12C7918.39 3479.6 7940.21 3577.81 7907.47 3697.85C7874.74 3839.71 7765.61 4003.39 7612.84 4177.99C7611.41 4179.42 7609.7 4180.56 7607.83 4181.34C7605.96 4182.11 7603.95 4182.51 7601.93 4182.51C7599.9 4182.51 7597.89 4182.11 7596.02 4181.34C7594.15 4180.56 7592.45 4179.42 7591.01 4177.99C7589.58 4176.56 7588.44 4174.86 7587.67 4172.98C7586.89 4171.11 7586.49 4169.11 7586.49 4167.08C7586.49 4165.05 7586.89 4163.05 7587.67 4161.17C7588.44 4159.3 7589.58 4157.6 7591.01 4156.17C7918.39 3817.88 7951.12 3545.07 7831.09 3435.95C7754.7 3359.56 7634.66 3359.56 7547.36 3446.86C7470.98 3523.25 7383.68 3697.85 7285.47 3894.27C7187.26 4101.6 7067.22 4341.68 6925.36 4516.28C6838.06 4625.4 6597.99 4821.82 6270.61 4821.82Z" fill="#113952"/>
<path d="M7187.26 2770.29C6947.18 3086.75 6979.92 3621.46 6969.01 3643.28C7099.96 3959.74 7361.86 4265.29 7569.19 4418.06L7460.07 4625.4C7350.94 4549.01 6936.27 4298.03 6587.08 3654.2C6576.16 3643.28 6521.6 2999.45 6728.94 2519.31L7187.26 2770.29Z" fill="#F65B2B"/>
<path d="M7842 6829.7L7700.14 6633.28C7580.1 6469.59 7481.89 6284.08 7427.33 6087.66L7154.52 5149.19L6990.83 4592.66L6859.88 4145.25H7143.6C7156.63 4145.25 7169.12 4140.08 7178.33 4130.87C7187.54 4121.66 7192.71 4109.17 7192.71 4096.15C7192.71 4083.12 7187.54 4070.63 7178.33 4061.42C7169.12 4052.22 7156.63 4047.04 7143.6 4047.04H6805.32C6797.18 4045.89 6788.88 4047.07 6781.37 4050.43C6773.87 4053.79 6767.46 4059.21 6762.9 4066.05C6758.34 4072.89 6755.81 4080.89 6755.59 4089.11C6755.37 4097.33 6757.48 4105.44 6761.67 4112.52L6892.62 4559.92H4371.86L4219.08 4079.78C4208.17 4057.95 4197.26 4047.04 4175.43 4047.04L4033.57 4057.95C4021.99 4057.95 4010.89 4062.55 4002.71 4070.74C3994.52 4078.93 3989.92 4090.03 3989.92 4101.6C3989.92 4113.18 3994.52 4124.28 4002.71 4132.47C4010.89 4140.65 4021.99 4145.25 4033.57 4145.25H4142.69L4295.47 4603.57L3149.67 6829.7V6851.53H3138.75V6862.44C3143.13 6872.13 3150.89 6879.89 3160.58 6884.27V6895.18H3182.4L5168.46 7178.9H5190.29C5193.9 7179.51 5197.59 7179.51 5201.2 7178.9V7167.99H5212.11L7089.04 5247.41L7340.03 6109.49C7405.5 6316.82 7492.8 6513.24 7623.75 6687.84L7765.61 6884.27C7769.19 6889.28 7773.73 6893.54 7778.96 6896.81C7784.19 6900.07 7790.01 6902.27 7796.09 6903.28C7802.17 6904.3 7808.39 6904.1 7814.39 6902.71C7820.4 6901.32 7826.07 6898.76 7831.09 6895.18C7836.1 6891.6 7840.36 6887.06 7843.63 6881.83C7846.89 6876.6 7849.09 6870.78 7850.1 6864.7C7851.12 6858.62 7850.92 6852.4 7849.53 6846.4C7848.14 6840.39 7845.58 6834.72 7842 6829.7ZM5113.9 7080.69L3258.79 6818.79L4328.21 4723.61L5113.9 7080.69ZM5201.2 7047.95L4404.59 4658.14H6914.44L7056.31 5149.19L5201.2 7047.95Z" fill="#67A3C3"/>
<path d="M7350.94 5378.35L7340.03 5367.44C7132.69 4876.38 7012.66 4461.71 6979.92 4134.34C6947.18 3796.06 7023.57 3632.37 7089.05 3555.98C7165.43 3479.6 7274.56 3457.77 7383.68 3501.42C7601.93 3577.81 7820.18 3872.44 7842 4276.2C7842.72 4277.64 7843.14 4279.2 7843.26 4280.79C7843.37 4282.39 7843.17 4284 7842.66 4285.52C7842.16 4287.04 7841.36 4288.44 7840.31 4289.65C7839.26 4290.86 7837.98 4291.85 7836.54 4292.57C7835.11 4293.29 7833.55 4293.71 7831.95 4293.83C7830.36 4293.94 7828.75 4293.74 7827.23 4293.23C7825.71 4292.73 7824.31 4291.93 7823.09 4290.88C7821.88 4289.83 7820.89 4288.55 7820.18 4287.11C7798.35 3883.36 7580.1 3599.63 7372.77 3523.25C7274.56 3490.51 7176.34 3501.42 7110.87 3577.81C7045.4 3643.28 6969.01 3796.06 7001.75 4134.34C7056.1 4563.98 7173.78 4983.19 7350.94 5378.35Z" fill="#376E92"/>
<path d="M3979.01 4057.95C3928.75 4058.03 3880.38 4038.84 3843.84 4004.33C3807.3 3969.83 3785.38 3922.62 3782.59 3872.44V3752.41C3782.59 3749.51 3783.74 3746.74 3785.78 3744.69C3787.83 3742.64 3790.6 3741.49 3793.5 3741.49C3796.39 3741.49 3799.17 3742.64 3801.21 3744.69C3803.26 3746.74 3804.41 3749.51 3804.41 3752.41L3815.32 3872.44C3815.32 3915.86 3832.57 3957.49 3863.27 3988.19C3893.96 4018.88 3935.6 4036.13 3979.01 4036.13L4393.68 4014.3C4513.72 4014.3 4633.75 3959.74 4699.23 3861.53L4742.88 3817.88C4745.77 3816.43 4749.12 3816.2 4752.19 3817.22C4755.26 3818.24 4757.8 3820.44 4759.25 3823.34C4760.69 3826.23 4760.93 3829.58 4759.91 3832.65C4758.88 3835.72 4756.68 3838.26 4753.79 3839.71L4721.05 3883.36C4644.67 3981.57 4524.63 4036.13 4393.68 4047.04L3979.01 4057.95Z" fill="#67A3C3"/>
<path d="M3651.64 3774.23C3651.64 3774.23 3673.46 3719.67 3728.02 3730.58C3793.5 3730.58 3946.27 3785.14 4000.83 3785.14H4786.53C4786.53 3785.14 4884.74 3785.14 4884.74 3927.01H4131.78C4099.05 3927.01 4044.48 3970.66 4000.83 3970.66C3935.36 3970.66 3858.97 3872.44 3651.64 3774.23Z" fill="#F63B4E"/>
<path d="M4317.3 3785.14L4524.63 3927.01H4797.44L4677.41 3785.14H4317.3Z" fill="#B82D41"/>
<path d="M6838.06 2977.63C6838.06 2999.45 6870.8 3043.1 7012.66 3108.58C7154.52 3174.05 7078.13 2944.89 7078.13 2944.89C7078.13 2944.89 6848.97 2835.77 6838.06 2977.63Z" fill="#5E1212"/>
<path d="M6587.07 2955.8C6587.07 2955.8 6816.23 3141.31 7056.31 3130.4L7143.61 3021.28L6652.55 2792.12L6587.07 2955.8Z" fill="#DA4017"/>
<path d="M6663.46 3043.1C6696.2 2868.5 6925.36 3163.14 7132.69 3141.31C7132.69 3010.36 7241.82 2672.08 7241.82 2672.08L6641.64 2803.03L6663.46 3043.1Z" fill="#E79229"/>
<path d="M3673.46 5334.71H3662.55V5312.88L4328.21 4603.57C4329.65 4600.68 4332.19 4598.48 4335.26 4597.46C4338.33 4596.43 4341.68 4596.67 4344.58 4598.12C4347.47 4599.57 4349.67 4602.1 4350.69 4605.17C4351.72 4608.24 4351.48 4611.59 4350.03 4614.49L3684.38 5334.71H3673.46ZM7907.47 6851.53C7912.86 6867.92 7914.29 6885.35 7911.63 6902.4C7908.97 6919.44 7902.32 6935.62 7892.2 6949.59C7882.08 6963.57 7868.8 6974.95 7853.43 6982.79C7838.06 6990.64 7821.06 6994.73 7803.81 6994.73C7786.55 6994.73 7769.55 6990.64 7754.18 6982.79C7738.82 6974.95 7725.53 6963.57 7715.41 6949.59C7705.3 6935.62 7698.64 6919.44 7695.98 6902.4C7693.33 6885.35 7694.75 6867.92 7700.14 6851.53C7707.31 6829.7 7721.2 6810.69 7739.82 6797.21C7758.43 6783.73 7780.82 6776.48 7803.81 6776.48C7826.79 6776.48 7849.18 6783.73 7867.8 6797.21C7886.41 6810.69 7900.3 6829.7 7907.47 6851.53Z" fill="#113952"/>
<path d="M7612.84 7037.04H7601.93C7558.28 6982.48 7536.45 6917 7536.45 6851.53C7536.45 6848.63 7537.6 6845.86 7539.65 6843.81C7541.7 6841.77 7544.47 6840.62 7547.37 6840.62C7550.26 6840.62 7553.04 6841.77 7555.08 6843.81C7557.13 6845.86 7558.28 6848.63 7558.28 6851.53C7558.28 6917 7580.1 6971.57 7623.75 7015.21C7626.65 7016.66 7628.85 7019.2 7629.87 7022.27C7630.89 7025.34 7630.66 7028.69 7629.21 7031.58C7627.76 7034.48 7625.22 7036.68 7622.15 7037.7C7619.08 7038.72 7615.73 7038.49 7612.84 7037.04ZM7798.35 7124.34C7794.01 7124.34 7789.85 7122.61 7786.78 7119.54C7783.71 7116.47 7781.98 7112.31 7781.98 7107.97C7781.98 7103.63 7783.71 7099.47 7786.78 7096.4C7789.85 7093.33 7794.01 7091.6 7798.35 7091.6C7851.94 7079.98 7899.93 7050.36 7934.34 7007.68C7968.76 6964.99 7987.53 6911.82 7987.53 6856.99C7987.53 6802.15 7968.76 6748.98 7934.34 6706.29C7899.93 6663.61 7851.94 6633.99 7798.35 6622.37C7794.01 6622.37 7789.85 6620.64 7786.78 6617.57C7783.71 6614.5 7781.98 6610.34 7781.98 6606C7781.98 6601.66 7783.71 6597.5 7786.78 6594.43C7789.85 6591.36 7794.01 6589.63 7798.35 6589.63C7869.26 6589.63 7937.26 6617.8 7987.4 6667.94C8037.54 6718.08 8065.7 6786.08 8065.7 6856.99C8065.7 6927.89 8037.54 6995.89 7987.4 7046.03C7937.26 7096.17 7869.26 7124.34 7798.35 7124.34Z" fill="#67A3C3"/>
<path d="M7427.33 5651.16L7405.5 5629.34L7296.38 5280.14C7292.25 5276.42 7289.14 5271.71 7287.33 5266.45C7285.53 5261.19 7285.1 5255.55 7286.07 5250.08C7287.05 5244.6 7289.4 5239.47 7292.92 5235.16C7296.43 5230.84 7300.98 5227.5 7306.14 5225.43C7311.31 5223.37 7316.91 5222.65 7322.43 5223.35C7327.94 5224.05 7333.19 5226.15 7337.67 5229.44C7342.16 5232.73 7345.73 5237.11 7348.05 5242.16C7350.37 5247.21 7351.37 5252.77 7350.94 5258.32L7460.07 5607.52C7461.88 5612.61 7462.4 5618.06 7461.59 5623.41C7460.77 5628.75 7458.65 5633.8 7455.41 5638.12C7452.17 5642.45 7447.91 5645.9 7443.01 5648.17C7438.11 5650.45 7432.72 5651.48 7427.33 5651.16ZM3433.39 5618.43L3411.57 5607.52V5563.87L3651.64 5301.97C3653.9 5297.24 3657.25 5293.13 3661.43 5289.97C3665.61 5286.81 3670.48 5284.7 3675.64 5283.81C3680.81 5282.93 3686.11 5283.29 3691.1 5284.88C3696.09 5286.46 3700.63 5289.22 3704.33 5292.93C3708.03 5296.63 3710.79 5301.17 3712.38 5306.16C3713.97 5311.15 3714.33 5316.45 3713.45 5321.61C3712.56 5326.77 3710.45 5331.65 3707.29 5335.83C3704.13 5340 3700.01 5343.36 3695.29 5345.62L3444.3 5607.52L3433.39 5618.43Z" fill="#113952"/>
<path d="M7056.31 5149.19H7154.52L7012.66 4658.14H6914.45L7056.31 5149.19ZM4644.67 4658.14H4939.3V4559.92H4644.67V4658.14Z" fill="#B4D2D0"/>
<path d="M5539.48 4658.14H6074.19V4559.92H5452.18L5539.48 4658.14ZM7809.26 6851.53C7809.26 6854.42 7808.11 6857.2 7806.07 6859.25C7804.02 6861.29 7801.24 6862.44 7798.35 6862.44C7795.46 6862.44 7792.68 6861.29 7790.63 6859.25C7788.59 6857.2 7787.44 6854.42 7787.44 6851.53C7787.44 6848.63 7788.59 6845.86 7790.63 6843.81C7792.68 6841.77 7795.46 6840.62 7798.35 6840.62C7801.24 6840.62 7804.02 6841.77 7806.07 6843.81C7808.11 6845.86 7809.26 6848.63 7809.26 6851.53ZM4961.13 6338.65L4862.91 6022.19H4764.7L4852 6295L4961.13 6338.65Z" fill="#113952"/>
<path d="M7481.89 4287.12L7656.49 4254.38H7689.23V4265.29H7700.14C7707.98 4271.98 7715.27 4279.28 7721.97 4287.12L7732.88 4298.03L7743.79 4308.94L7754.7 4319.85L7765.61 4341.68L7776.53 4352.59L7787.44 4374.41L7798.35 4396.24C7802.69 4402.03 7804.56 4409.3 7803.53 4416.47C7802.51 4423.63 7798.68 4430.09 7792.9 4434.43C7787.11 4438.77 7779.83 4440.64 7772.67 4439.61C7765.51 4438.59 7759.04 4434.76 7754.7 4428.98L7743.79 4407.15L7721.97 4396.24L7711.05 4385.33L7700.14 4374.41H7689.23V4363.5H7667.4C7660.43 4359.29 7653.13 4355.64 7645.58 4352.59H7678.32L7514.63 4396.24C7507.46 4398.39 7499.95 4399.11 7492.5 4398.35C7485.06 4397.59 7477.84 4395.38 7471.25 4391.83C7464.67 4388.29 7458.84 4383.48 7454.12 4377.68C7449.39 4371.88 7445.85 4365.21 7443.7 4358.05C7441.55 4350.88 7440.83 4343.36 7441.59 4335.92C7442.34 4328.48 7444.56 4321.26 7448.11 4314.67C7451.65 4308.08 7456.46 4302.26 7462.26 4297.53C7468.06 4292.8 7474.73 4289.26 7481.89 4287.12Z" fill="#FF8F6B"/>
<path d="M7863.82 4439.89C7863.82 4439.89 7852.91 4407.15 7918.38 4428.98V4472.63L7863.82 4439.89Z" fill="#DA4017"/>
<path d="M7711.05 4243.47H7842L7809.26 4374.41L7732.88 4439.89L7711.05 4243.47Z" fill="#376E92"/>
<path d="M7427.33 4690.87H7274.55C7262.98 4690.87 7251.88 4686.27 7243.69 4678.09C7235.5 4669.9 7230.9 4658.8 7230.9 4647.22C7230.9 4635.65 7235.5 4624.55 7243.69 4616.36C7251.88 4608.17 7262.98 4603.57 7274.55 4603.57H7427.33C7547.36 4603.57 7656.49 4505.36 7656.49 4374.41C7656.49 4243.47 7547.36 4145.25 7427.33 4145.25H7143.61C7130.58 4145.25 7118.09 4140.08 7108.88 4130.87C7099.67 4121.66 7094.5 4109.17 7094.5 4096.15C7094.5 4083.12 7099.67 4070.63 7108.88 4061.42C7118.09 4052.22 7130.58 4047.04 7143.61 4047.04H7427.33C7601.93 4047.04 7743.79 4188.9 7743.79 4374.41C7743.79 4549.01 7601.93 4690.87 7427.33 4690.87Z" fill="#F63B4E"/>
<path d="M7842 4254.38H7852.91C7868.99 4263.08 7883.7 4274.11 7896.56 4287.11C7919.65 4311.1 7934.88 4341.55 7940.21 4374.41V4428.98L7929.3 4483.54C7922.12 4567.21 7914.85 4650.87 7907.47 4734.52L7918.38 4767.26L7929.3 4789.09H7940.21V4800H7951.12C7954.02 4801.44 7956.22 4803.98 7957.24 4807.05C7958.26 4810.12 7958.03 4813.47 7956.58 4816.37C7955.13 4819.26 7952.59 4821.46 7949.52 4822.48C7946.45 4823.51 7943.1 4823.27 7940.21 4821.82H7929.3L7918.38 4810.91H7907.47L7885.65 4778.17L7874.74 4745.44L7863.82 4647.22C7867.07 4592.2 7874.37 4537.49 7885.65 4483.54V4418.06L7896.56 4407.15L7885.65 4396.24V4385.33L7874.74 4352.59L7852.91 4330.76L7831.09 4319.85L7820.17 4308.94C7814.63 4309.36 7809.07 4308.37 7804.01 4306.04C7798.96 4303.72 7794.58 4300.15 7791.29 4295.67C7788 4291.19 7785.91 4285.94 7785.21 4280.42C7784.51 4274.91 7785.22 4269.3 7787.29 4264.14C7789.35 4258.98 7792.7 4254.42 7797.01 4250.91C7801.32 4247.4 7806.46 4245.05 7811.93 4244.07C7817.41 4243.09 7823.04 4243.53 7828.3 4245.33C7833.56 4247.13 7838.27 4250.25 7842 4254.38Z" fill="#376E92"/>
<path d="M6881.71 4199.82H6783.5L6827.15 4341.68L6936.27 4418.06L6881.71 4199.82Z" fill="#113952"/>
</g>
<mask id="mask4_369_51" style="mask-type:luminance" maskUnits="userSpaceOnUse" x="3410" y="0" width="5263" height="3725">
<path d="M3410 0H8672.5V3725H3410" fill="white"/>
</mask>
<g mask="url(#mask4_369_51)">
<path d="M7053.75 2131.25C7053.75 2131.25 7097.5 2150 7166.25 2118.75L7541.25 2487.5L7241.25 2706.25L7078.75 2768.75L6953.75 2262.5L7053.75 2131.25Z" fill="#F58D6C"/>
<path d="M7541.25 2487.5L7322.5 2275C7360 2418.75 7447.5 2462.5 7335 2637.5L7541.25 2487.5Z" fill="#D74225"/>
<path d="M7247.5 2231.25C7160 2156.25 7135 2118.75 7060 2106.25C6747.5 2062.5 7078.75 1881.25 7053.75 1787.5C6928.75 1537.5 7385 1262.5 7503.75 1387.5C7472.5 1318.75 7510 1293.75 7566.25 1312.5C7697.5 1356.25 7947.5 1612.5 7966.25 1856.25L7247.5 2231.25Z" fill="#5E1313"/>
<path d="M7953.75 2181.25L8010 2350C8003.75 2375 7916.25 2400 7916.25 2400L7953.75 2181.25Z" fill="#F58D6C"/>
<path d="M7397.5 2375C7435 2356.25 7460 2312.5 7472.5 2293.75H7372.5L7347.5 2306.25L7397.5 2375Z" fill="#EF5C2E"/>
<path d="M7878.75 2418.75L7922.5 2425C7935 2425 7941.25 2443.75 7928.75 2450C7916.25 2462.5 7897.5 2456.25 7891.25 2481.25C7885 2506.25 7903.75 2518.75 7885 2537.5C7872.5 2556.25 7847.5 2525 7847.5 2525L7878.75 2418.75Z" fill="#F58D6C"/>
<path d="M6697.5 2131.25L4535 2537.5L4235 887.5L6391.25 487.5L6697.5 2131.25Z" fill="#ED9220"/>
<path d="M4316.25 1418.75L4291.25 1300L6235 900L6253.75 1018.75L4316.25 1418.75Z" fill="#060606"/>
<path d="M6685 2131.25L6422.5 2181.25L6116.25 537.5L6378.75 487.5L6685 2131.25Z" fill="#E69225"/>
<path d="M6735 2131.25L6472.5 2181.25L6153.75 456.25L6416.25 406.25L6735 2131.25Z" fill="#F89F46"/>
<path d="M5116.25 2450L4910 2487.5L4628.75 800L4828.75 768.75L5116.25 2450ZM6291.25 2212.5L6072.5 2250L5791.25 568.75L6010 531.25L6291.25 2212.5Z" fill="#060606"/>
<path d="M4972.5 3137.5C4997.5 3093.75 5110 2525 5116.25 2412.5C5116.25 2312.5 5047.5 2243.75 4935 2306.25C4853.75 2350 4866.25 2412.5 4822.5 2387.5C4785 2362.5 4722.5 2325 4666.25 2325C4541.25 2318.75 4066.25 2712.5 4503.75 3318.75L4972.5 3137.5Z" fill="#5E1313"/>
<path d="M7847.5 2556.25C7710 2687.5 7310 2418.75 7235 2050C7135 1593.75 7622.5 1375 7885 1731.25C8010 1912.5 7966.25 2118.75 7953.75 2162.5C7947.5 2218.75 7928.75 2475 7847.5 2556.25Z" fill="#F58D6C"/>
<path d="M7891.25 1687.5C7935 1762.5 7947.5 1825 7953.75 1893.75C7803.75 1893.75 7703.75 1737.5 7697.5 1712.5C7697.5 1712.5 7710 1581.25 7766.25 1575C7791.25 1575 7860 1625 7891.25 1687.5Z" fill="#D74225"/>
<path d="M7178.75 2050C7066.25 1512.5 7585 1237.5 7885 1656.25C7922.5 1712.5 7966.25 1787.5 7966.25 1856.25C7822.5 1906.25 7816.25 1718.75 7753.75 1756.25C7691.25 1787.5 7653.75 2087.5 7416.25 2106.25L7178.75 2050ZM7953.75 1987.5H7935L7922.5 1981.25H7885L7860 1987.5H7841.25L7816.25 1993.75H7797.5L7778.75 2000L7760 2006.25L7747.5 2012.5H7735L7741.25 2006.25L7753.75 2000L7766.25 1987.5L7785 1981.25L7803.75 1975L7822.5 1962.5C7838.86 1957.17 7855.56 1953 7872.5 1950L7891.25 1943.75H7916.25C7928.66 1941.13 7941.17 1939.05 7953.75 1937.5H7960C7985 1937.5 8003.75 1950 7997.5 1962.5C7997.5 1981.25 7978.75 1987.5 7953.75 1987.5Z" fill="#5E1313"/>
<path d="M7285 2018.75H7997.5V2081.25H7978.75C7978.75 2081.25 7985 2243.75 7885 2243.75C7785 2243.75 7766.25 2056.25 7766.25 2056.25H7278.75L7285 2018.75Z" fill="#1F170D"/>
<path d="M7903.75 2200C7872.5 2206.25 7841.25 2168.75 7835 2137.5L7816.25 2062.5L7810 2068.75C7803.75 2087.5 7797.5 2106.25 7803.75 2131.25L7828.75 2187.5C7847.5 2206.25 7878.75 2225 7903.75 2206.25V2200Z" fill="#6D799F"/>
<path d="M7953.75 2050V2106.25L7941.25 2187.5V2193.75L7960 2131.25L7972.5 2056.25C7972.5 2043.75 7953.75 2037.5 7953.75 2050Z" fill="white"/>
<path d="M7478.75 2162.5C7478.75 2162.5 7472.5 2006.25 7372.5 1993.75C7178.75 1956.25 7191.25 2275 7341.25 2337.5C7416.25 2362.5 7472.5 2293.75 7472.5 2293.75L7478.75 2162.5Z" fill="#F58D6C"/>
<path d="M7266.25 2100L7272.5 2093.75C7275.39 2084.84 7279.61 2076.41 7285 2068.75C7293.17 2057.94 7303.91 2049.35 7316.25 2043.75C7332.33 2037.47 7350.17 2037.47 7366.25 2043.75L7403.75 2075C7412.17 2086.29 7418.52 2098.99 7422.5 2112.5L7428.75 2125V2137.5L7435 2150C7436.87 2152.83 7437.95 2156.11 7438.1 2159.49C7438.26 2162.88 7437.5 2166.24 7435.9 2169.23C7434.29 2172.22 7431.91 2174.71 7429 2176.45C7426.09 2178.2 7422.77 2179.11 7419.38 2179.11C7415.98 2179.11 7412.66 2178.2 7409.75 2176.45C7406.84 2174.71 7404.46 2172.22 7402.85 2169.23C7401.25 2166.24 7400.49 2162.88 7400.65 2159.49C7400.8 2156.11 7401.88 2152.83 7403.75 2150L7397.5 2143.75V2118.75C7394.76 2107.82 7390.56 2097.31 7385 2087.5L7360 2062.5H7322.5C7311.14 2063.73 7300.33 2068.05 7291.25 2075C7286.16 2080.58 7281.95 2086.91 7278.75 2093.75V2100L7272.5 2106.25C7270.84 2106.25 7269.25 2105.59 7268.08 2104.42C7266.91 2103.25 7266.25 2101.66 7266.25 2100Z" fill="#D74225"/>
<path d="M7428.75 1312.5C7416.25 1275 7378.75 1262.5 7341.25 1268.75C7310 1281.25 7297.5 1318.75 7310 1350C7322.5 1381.25 7366.25 1400 7397.5 1387.5C7428.75 1381.25 7447.5 1343.75 7428.75 1312.5Z" fill="#FBB855"/>
<path d="M7835 1706.25L7935 1725C7953.75 1731.25 7972.5 1750 7972.5 1775C7972.5 1793.75 7953.75 1812.5 7928.75 1812.5L7866.25 1806.25L7835 1706.25Z" fill="#217177"/>
<path d="M6991.25 1900C6991.25 1900 6722.5 2006.25 6591.25 1887.5C6566.25 1918.75 6641.25 2031.25 6785 2050C7078.75 2087.5 7391.25 1856.25 7391.25 1856.25L6991.25 1900Z" fill="#469CA0"/>
<path d="M6991.25 1900C6991.25 1900 6828.75 1362.5 7353.75 1293.75C7791.25 1237.5 7922.5 1606.25 7922.5 1606.25C7922.5 1606.25 7835 1650 7866.25 1806.25L6991.25 1900Z" fill="#2A858B"/>
<path d="M7347.5 1293.75C6835 1368.75 6991.25 1900 6991.25 1900L7222.5 1875C7210 1856.25 7097.5 1400 7347.5 1293.75Z" fill="#469CA0"/>
<path d="M7753.75 1818.75L7866.25 1806.25C7835 1650 7922.5 1606.25 7922.5 1606.25C7922.5 1606.25 7791.25 1237.5 7353.75 1293.75C7391.25 1300 7641.25 1331.25 7753.75 1818.75Z" fill="#217177"/>
<path d="M7097.5 1456.25C7091.25 1443.75 7078.75 1443.75 7072.5 1443.75C7060 1450 7053.75 1456.25 7060 1468.75C7066.25 1481.25 7078.75 1487.5 7085 1481.25C7097.5 1475 7103.75 1468.75 7097.5 1456.25ZM7403.75 1425C7397.5 1412.5 7385 1406.25 7378.75 1412.5C7366.25 1412.5 7360 1425 7366.25 1431.25C7372.5 1443.75 7385 1450 7391.25 1443.75C7403.75 1443.75 7410 1431.25 7403.75 1425ZM7716.25 1387.5C7710 1375 7697.5 1368.75 7691.25 1375C7678.75 1375 7672.5 1387.5 7678.75 1400L7703.75 1412.5C7716.25 1406.25 7722.5 1393.75 7716.25 1387.5Z" fill="#5E1313"/>
<path d="M7435 2225C7433.8 2216.72 7430.26 2208.95 7424.78 2202.63C7419.31 2196.3 7412.14 2191.67 7404.11 2189.3C7396.09 2186.93 7387.56 2186.9 7379.52 2189.23C7371.48 2191.56 7364.28 2196.15 7358.77 2202.44C7353.26 2208.74 7349.68 2216.48 7348.43 2224.76C7347.19 2233.03 7348.35 2241.49 7351.77 2249.13C7355.18 2256.76 7360.72 2263.26 7367.72 2267.84C7374.72 2272.43 7382.88 2274.91 7391.25 2275L7428.75 2362.5C7429.12 2366.42 7430.41 2370.2 7432.52 2373.53C7434.62 2376.86 7437.48 2379.64 7440.87 2381.65C7444.26 2383.67 7448.07 2384.85 7452 2385.11C7455.93 2385.37 7459.87 2384.69 7463.49 2383.14C7467.11 2381.59 7470.31 2379.2 7472.84 2376.18C7475.36 2373.15 7477.13 2369.58 7478.01 2365.74C7478.89 2361.9 7478.85 2357.9 7477.89 2354.08C7476.93 2350.26 7475.09 2346.72 7472.5 2343.75L7428.75 2256.25L7435 2225Z" fill="#ECDBCF"/>
</g>
<mask id="mask5_369_51" style="mask-type:luminance" maskUnits="userSpaceOnUse" x="0" y="1160" width="11536" height="8166">
<path d="M0 1160H11535.4V9325.2H0" fill="white"/>
</mask>
<g mask="url(#mask5_369_51)">
<path d="M5151.2 7174.3L5164.9 7160.6L5863.6 7051C5867.23 7051 5870.72 7052.44 5873.29 7055.01C5875.86 7057.58 5877.3 7061.07 5877.3 7064.7C5877.3 7068.33 5875.86 7071.82 5873.29 7074.39C5870.72 7076.96 5867.23 7078.4 5863.6 7078.4L5164.9 7188L5151.2 7174.3Z" fill="#0F3952"/>
<path d="M6041.7 7105.8L5699.2 7119.5C5671.8 7119.5 5644.4 7092.1 5644.4 7064.7C5644.4 7037.3 5671.8 7023.6 5699.2 7009.9H6028C6055.4 7009.9 6082.8 7023.6 6082.8 7051C6082.8 7078.4 6069.1 7105.8 6041.7 7105.8Z" fill="#0F3952"/>
<path d="M5069 6283.8C5082.7 6324.9 5192.3 6311.2 5370.4 6160.5C5548.5 6009.8 5301.9 6037.2 5192.3 6092C5082.7 6160.5 5055.3 6242.7 5069 6283.8Z" fill="#5E1313"/>
<path d="M5260.8 5927.6L5151.2 6571.5L5384.1 6612.6C5493.7 6297.5 5644.4 6009.8 5795.1 5776.9L5260.8 5927.6Z" fill="#F58D6C"/>
<path d="M5384.1 6612.6L5411.5 6571.5C5260.8 6557.8 5178.6 6434.5 5178.6 6434.5L5151.2 6571.5L5384.1 6612.6Z" fill="white"/>
<path d="M5151.2 6420.8H5110.1L5041.6 6667.4L5082.7 6804.4L5000.5 6900.3L5658.1 6982.5C5712.9 6996.2 5808.8 7023.6 5849.9 7009.9L6014.3 6996.2L6123.9 6955.1L6096.5 6941.4L5795.1 6914C5754 6927.7 5712.9 6941.4 5671.8 6927.7C5548.5 6872.9 5288.2 6777 5247.1 6735.9C5206 6681.1 5151.2 6420.8 5151.2 6420.8Z" fill="#ED3D50"/>
<path d="M5726.6 5845.4L5233.4 6064.6L5206 6201.6L5603.3 6105.7L5726.6 5872.8V5845.4Z" fill="#D74225"/>
<path d="M5507.4 3297.2C5425.2 3078 5288.2 2858.8 5123.8 2858.8C4644.3 2858.8 4301.8 3269.8 4521 3708.2C4671.7 3995.9 5233.4 4571.3 5603.3 4735.7C5575.9 4749.4 5480 5091.9 5562.2 5160.4L5521.1 5215.2C5438.9 5324.8 5315.6 5420.7 5301.9 5461.8C5288.2 5516.6 5343 5502.9 5343 5544C5356.7 5571.4 5137.5 5639.9 5137.5 5735.8C5151.2 5790.6 5178.6 5790.6 5192.3 5804.3C5219.7 5804.3 4986.8 5913.9 5014.2 5996.1C5041.6 6064.6 5110.1 6078.3 5110.1 6078.3C5110.1 6078.3 5000.5 6146.8 5069 6283.8C5041.6 6187.9 5644.4 6078.3 5726.6 5941.3L6123.9 5297.4C6288.3 5078.2 6370.5 4913.8 6302 4749.4C6110.2 4352.1 5754 3502.7 5507.4 3297.2Z" fill="#469CA0"/>
<path d="M5055.3 3694.5L4945.7 3543.8L5178.6 3379.4L5206 3434.2C5206 3598.6 5055.3 3694.5 5055.3 3694.5Z" fill="#ECDBCF"/>
<path d="M5206 3434.2L5192.3 3406.8L5014.2 3639.7L5055.3 3694.5C5055.3 3694.5 5206 3598.6 5206 3434.2Z" fill="#D29B80"/>
<path d="M4795 3776.7C4791.37 3776.7 4787.88 3775.26 4785.31 3772.69C4782.74 3770.12 4781.3 3766.63 4781.3 3763C4781.3 3759.37 4782.74 3755.88 4785.31 3753.31C4787.88 3750.74 4791.37 3749.3 4795 3749.3C5041.6 3749.3 5137.5 3598.6 5164.9 3543.8C5206 3461.6 5206 3365.7 5164.9 3324.6C5163.08 3320.97 5162.78 3316.76 5164.07 3312.91C5165.35 3309.05 5168.12 3305.87 5171.75 3304.05C5175.38 3302.23 5179.59 3301.93 5183.44 3303.22C5187.3 3304.5 5190.48 3307.27 5192.3 3310.9C5233.4 3365.7 5233.4 3461.6 5192.3 3557.5C5164.9 3626 5055.3 3776.7 4795 3776.7Z" fill="#217177"/>
<path d="M5397.8 6585.2C5438.9 6544.1 5411.5 6434.5 5452.6 6379.7C5507.4 6297.5 5575.9 6324.9 5575.9 6324.9C5575.9 6324.9 5534.8 6461.9 5603.3 6598.9L5397.8 6585.2Z" fill="#ED3D50"/>
<path d="M5178.6 6544.1C5178.6 6544.1 5370.4 6598.9 5397.8 6585.2L5507.4 6516.7C5575.9 6544.1 5795.1 6749.6 5808.8 6749.6L6055.4 6831.8C6110.2 6859.2 6096.5 6941.4 6096.5 6941.4L5781.4 6968.8L5507.4 6927.7L5219.7 6749.6L5178.6 6544.1Z" fill="#FBB855"/>
<path d="M5521.1 6694.8C5517.46 6694.8 5513.98 6693.36 5511.41 6690.79C5508.84 6688.22 5507.4 6684.73 5507.4 6681.1C5507.4 6667.4 5562.2 6612.6 5617 6585.2C5620.63 6583.38 5624.84 6583.08 5628.69 6584.37C5632.55 6585.65 5635.73 6588.42 5637.55 6592.05C5639.37 6595.68 5639.66 6599.89 5638.38 6603.74C5637.09 6607.6 5634.33 6610.78 5630.7 6612.6C5589.96 6633.89 5552.94 6661.65 5521.1 6694.8ZM5548.5 6804.4C5547.6 6806.2 5546.35 6807.8 5544.83 6809.12C5543.31 6810.44 5541.55 6811.44 5539.64 6812.08C5537.73 6812.72 5535.72 6812.97 5533.71 6812.83C5531.71 6812.69 5529.75 6812.15 5527.95 6811.25C5526.15 6810.35 5524.54 6809.11 5523.23 6807.59C5521.91 6806.07 5520.9 6804.3 5520.27 6802.39C5519.63 6800.49 5519.38 6798.47 5519.52 6796.46C5519.66 6794.46 5520.2 6792.5 5521.1 6790.7C5534.8 6777 5603.3 6694.8 5685.5 6640C5687.3 6639.1 5689.26 6638.56 5691.26 6638.42C5693.27 6638.28 5695.28 6638.53 5697.19 6639.17C5699.1 6639.81 5700.86 6640.81 5702.38 6642.13C5703.9 6643.45 5705.15 6645.05 5706.05 6646.85C5706.95 6648.65 5707.48 6650.61 5707.63 6652.61C5707.77 6654.62 5707.52 6656.64 5706.88 6658.54C5706.24 6660.45 5705.24 6662.22 5703.92 6663.74C5702.6 6665.26 5701 6666.5 5699.2 6667.4C5644.77 6708.23 5594.31 6754.1 5548.5 6804.4Z" fill="white"/>
</g>
<mask id="mask6_369_51" style="mask-type:luminance" maskUnits="userSpaceOnUse" x="3660" y="1370" width="5274" height="3733">
<path d="M3660 1370H8933.02V5102.45H3660" fill="white"/>
</mask>
<g mask="url(#mask6_369_51)">
<path d="M5106.64 2854.21C4937.55 2854.21 4793.51 2904.31 4674.53 2985.73C4611.9 3298.85 5281.99 3348.95 5463.6 3386.53L5438.55 3330.16L5413.5 3311.38C5369.66 3136.03 5269.46 2854.21 5106.64 2854.21Z" fill="#217177"/>
<path d="M7048.01 2115.24C6359.14 1839.69 5732.89 2497.25 5031.49 2265.54C5163 2397.05 4899.98 2647.55 4874.93 3004.51C4849.88 3330.16 5325.83 3223.7 5732.89 3536.83C6221.36 3204.91 6910.24 3217.44 7235.89 2691.39C7235.89 2691.39 7392.45 2397.05 7048.01 2115.24Z" fill="#FBB855"/>
<path d="M7148.21 2090.19C6885.19 1989.99 6640.95 2015.04 6390.45 2077.66C6597.11 2040.09 6810.04 2033.82 7022.96 2115.24C7367.4 2397.05 7217.1 2691.39 7217.1 2691.39C6903.97 3186.13 6271.46 3204.91 5795.51 3486.73L5826.82 3511.78C6315.3 3179.86 7004.17 3192.39 7336.09 2666.34C7336.09 2666.34 7486.39 2372 7148.21 2090.19Z" fill="#060606"/>
<path d="M6283.99 2453.41C6246.41 2490.99 5714.1 3023.3 5695.31 3511.78L5732.89 3536.83C5958.34 3386.53 6227.63 3305.11 6478.13 3211.18L6283.99 2453.41Z" fill="#E69225"/>
<path d="M5952.07 3148.55L5970.86 3154.81H5983.39C5989.65 3148.55 6058.54 3142.29 6052.27 3136.03C6046.01 3129.76 5570.06 2541.09 5137.95 2271.8H5075.32C5513.7 2522.3 5952.07 3142.29 5952.07 3148.55Z" fill="#E69225"/>
<path d="M6215.1 3336.42C6205.38 3336.42 6195.79 3334.16 6187.09 3329.81C6178.4 3325.47 6170.83 3319.15 6165 3311.37C6158.74 3305.11 5670.26 2622.5 5144.21 2334.42L5062.8 2271.8L5131.69 2253.01L5206.84 2259.27L5269.46 2271.8C5663.45 2527.49 6002.06 2859.71 6265.2 3248.75C6269.7 3255.21 6272.79 3262.54 6274.28 3270.27C6275.77 3278 6275.63 3285.95 6273.86 3293.62C6272.09 3301.29 6268.73 3308.51 6264.01 3314.8C6259.28 3321.09 6253.29 3326.33 6246.41 3330.16L6215.1 3336.42Z" fill="#1F140A"/>
<path d="M5175.52 2296.85H5250.67C5770.46 2616.24 6240.15 3261.28 6246.41 3267.54C6252.67 3280.06 6246.41 3292.59 6240.15 3298.85H6221.36L6208.84 3292.59C6202.57 3280.06 5701.57 2597.45 5175.52 2296.85Z" fill="#756454"/>
<path d="M6133.69 3142.29C6139.95 3192.39 6215.1 3223.7 6327.83 3217.44C6434.29 3211.17 6390.45 2910.57 6390.45 2910.57C6390.45 2910.57 6127.43 3085.92 6133.69 3142.29Z" fill="#5E1313"/>
<path d="M6822.56 2885.53C6697.31 3261.28 6634.69 3756.01 6634.69 3781.06C6860.14 4037.83 7198.31 4250.75 7448.81 4319.64L7404.97 4557.61C7285.99 4520.04 6810.04 4413.58 6271.46 3912.58C6265.2 3900.05 6221.36 3292.59 6258.94 2779.06L6822.56 2885.53Z" fill="#F58D6C"/>
<path d="M6246.41 3154.81C6246.41 3154.81 6534.49 3242.49 6753.68 3136.03L6791.25 3010.78L6246.41 2979.46V3154.81Z" fill="#D74225"/>
<path d="M6133.69 3136.03C6152.47 2779.06 6283.99 2453.41 6283.99 2453.41C6377.92 2240.49 6540.75 2159.07 6716.1 2202.91C6763.17 2215.34 6806.85 2238.16 6843.94 2269.7C6881.02 2301.23 6910.56 2340.68 6930.39 2385.14C6950.22 2429.6 6959.83 2477.94 6958.5 2526.61C6957.18 2575.27 6944.97 2623.02 6922.76 2666.34L6903.97 2703.91L6897.71 2716.44L6891.45 2728.96L6885.19 2735.23V2741.49L6878.92 2747.75L6866.4 2772.8L6853.87 2804.11L6847.61 2829.16L6835.09 2854.21L6822.56 2885.53L6759.94 3136.03C6615.9 3192.39 6177.52 2979.46 6133.69 3136.03Z" fill="#FBB855"/>
<path d="M7367.4 4551.35L7611.64 4626.5C7624.16 4626.5 7642.95 4607.71 7642.95 4607.71H7674.26L7724.36 4563.88L7893.45 4595.19C7918.5 4588.93 7949.81 4557.61 7918.5 4520.04C7974.86 4488.73 7924.76 4438.63 7924.76 4438.63C7855.88 4451.15 7749.41 4413.58 7724.36 4401.05C7693.05 4388.53 7480.13 4269.54 7455.08 4269.54C7436.29 4269.54 7311.04 4307.11 7285.99 4344.69C7217.1 4488.73 7367.4 4551.35 7367.4 4551.35Z" fill="#F58D6C"/>
<path d="M6384.19 3887.53C6384.19 3824.9 6327.82 3774.8 6265.2 3768.54L6271.46 3893.79L6340.35 3975.2C6365.4 3950.15 6384.19 3918.84 6384.19 3887.53Z" fill="#EF5C2E"/>
<path d="M6146.21 3142.29C6127.42 3129.76 6127.42 3098.45 6133.69 3079.66C6190.05 2929.36 6183.79 2785.33 6190.05 2635.03C6204.54 2562.7 6234.45 2494.35 6277.72 2434.63C6304.13 2405.63 6336.07 2382.21 6371.66 2365.74C6392.43 2351.02 6415.81 2340.39 6440.55 2334.43L6484.39 2340.69C6523.54 2343.42 6561.55 2355.09 6595.49 2374.8C6629.43 2394.51 6658.4 2421.74 6680.17 2454.4C6701.94 2487.06 6715.94 2524.27 6721.08 2563.19C6726.22 2602.1 6722.38 2641.67 6709.84 2678.86L6703.57 2703.91L6697.31 2716.44V2728.96L6691.05 2735.23V2747.75L6684.79 2766.54L6678.52 2791.59L6672.26 2816.64L6666 2835.43L6659.74 2860.48L6647.21 3067.14L6609.64 3079.66L6565.8 3085.93H6415.5L6365.4 3079.66C6296.51 3073.4 6227.62 3079.66 6165 3110.98C6152.47 3117.24 6146.21 3129.76 6146.21 3142.29Z" fill="#FFB954"/>
</g>
<mask id="mask7_369_51" style="mask-type:luminance" maskUnits="userSpaceOnUse" x="2820" y="980" width="5221" height="3696">
<path d="M2820 980H8040.4V4675.2H2820" fill="white"/>
</mask>
<g mask="url(#mask7_369_51)">
<path d="M4940.4 2660.2C4965.2 2530 4983.8 2412.2 4983.8 2362.6C4990 2269.6 4928 2207.6 4816.4 2263.4C4742 2313 4748.2 2368.8 4704.8 2344C4680 2319.2 4574.6 2331.6 4562.2 2282C4549.8 2232.4 4283.2 1897.6 4357.6 2375C4363.8 2393.6 4345.2 2418.4 4332.8 2430.8C4270.8 2474.2 4227.4 2449.4 4177.8 2505.2C4053.8 2654 3991.8 2926.8 4246 3162.4C4295.6 3212 4419.6 3044.6 4388.6 3187.2C4500.2 2889.6 4661.4 2734.6 4940.4 2660.2Z" fill="#5E1414"/>
<path d="M5541.8 3205.8C5541.8 3205.8 5721.6 3057 5696.8 2914.4C5696.8 2914.4 5355.8 2505.2 5107.8 2331.6C4859.8 2151.8 4450.6 2003 4370 2127C4320.4 2207.6 4562.2 1891.4 4717.2 2908.2C4760.6 3181 5107.8 3162.4 5455 3354.6L5541.8 3205.8Z" fill="#F8B655"/>
</g>
</svg>
